<svg xmlns="http://www.w3.org/2000/svg" viewBox="0 0 14 17">
  <path d="M4.004 13.813c0 1.171-.899 2.124-2.004 2.124s-2-.953-2-2.124c0-1.176.895-2.13 2-2.13s2.004.954 2.004 2.13zm5.488 1.566C9.23 10.246 5.36 6.129.523 5.852.238 5.836 0 6.078 0 6.382V7.98c0 .278.203.512.465.532 3.496.242 6.297 3.21 6.523 6.93.02.28.239.495.5.495h1.504c.285 0 .516-.253.5-.558zM14 15.39C13.738 7.625 7.86 1.344.516 1.062.234 1.052 0 1.294 0 1.595V3.19c0 .286.215.52.484.532 5.973.257 10.77 5.355 11.012 11.703.012.285.23.511.5.511H13.5c.281 0 .512-.25.5-.546zm0 0"/>
</svg>
