<svg xmlns="http://www.w3.org/2000/svg" viewBox="0 0 21 17">
  <path d="M10.5 2.125c1.902 0 3.445 1.563 3.445 3.484 0 1.926-1.543 3.489-3.445 3.489S7.055 7.535 7.055 5.609c0-1.921 1.543-3.484 3.445-3.484zm3.723 7.219l-1.313-.332c-1.613 1.172-3.566.91-4.82 0l-1.313.332a2.385 2.385 0 0 0-1.789 2.316v2.02c0 .66.528 1.195 1.18 1.195h8.664c.652 0 1.18-.535 1.18-1.195v-2.02c0-1.094-.739-2.05-1.79-2.316zm3.101.617c1.27 0 2.297-1.04 2.297-2.324 0-1.285-1.027-2.324-2.297-2.324-1.27 0-2.297 1.039-2.297 2.324s1.028 2.324 2.297 2.324zm-13.648 0c1.27 0 2.297-1.04 2.297-2.324 0-1.285-1.028-2.324-2.297-2.324-1.27 0-2.297 1.039-2.297 2.324S2.406 9.96 3.676 9.96zm.785 3.719v-2.02c0-.547.152-1.066.418-1.512-.984.489-2.078.29-2.813-.246l-.875.223C.492 10.301 0 10.938 0 11.672v1.344c0 .441.352.796.79.796h3.679a1.514 1.514 0 0 1-.008-.132zm15.348-3.555l-.875-.223c-.918.668-2 .641-2.817.239.27.449.422.968.422 1.52v2.019c0 .043-.004.09-.008.133h3.68c.437 0 .789-.356.789-.797v-1.344c0-.735-.492-1.371-1.191-1.547zm0 0"/>
</svg>
