<svg xmlns="http://www.w3.org/2000/svg" viewBox="0 0 17 17">
  <path d="M15.254 5.04c.008.147.008.3.008.452 0 4.606-3.504 9.91-9.91 9.91A9.845 9.845 0 0 1 0 13.84c.281.031.55.043.84.043 1.629 0 3.129-.551 4.328-1.488A3.487 3.487 0 0 1 1.91 9.977a3.765 3.765 0 0 0 1.574-.063A3.484 3.484 0 0 1 .691 6.492V6.45c.461.262 1.004.422 1.575.446A3.492 3.492 0 0 1 .71 3.992c0-.648.172-1.242.477-1.758A9.909 9.909 0 0 0 8.37 5.88a3.86 3.86 0 0 1-.086-.797 3.48 3.48 0 0 1 3.485-3.484c1.003 0 1.906.418 2.543 1.097a6.79 6.79 0 0 0 2.21-.84 3.482 3.482 0 0 1-1.53 1.922A7.067 7.067 0 0 0 17 3.234a7.439 7.439 0 0 1-1.746 1.805zm0 0"/>
</svg>
