<svg xmlns="http://www.w3.org/2000/svg" viewBox="0 0 19 17">
  <path d="M17.977 3.906c.12-.414 0-.719-.586-.719h-1.942c-.496 0-.722.262-.847.555 0 0-.989 2.426-2.387 4-.453.457-.66.602-.906.602-.121 0-.313-.145-.313-.563V3.906c0-.496-.137-.719-.547-.719H7.395c-.31 0-.493.235-.493.45 0 .468.7.582.77 1.91v2.879c0 .633-.113.75-.36.75-.66 0-2.261-2.438-3.21-5.227-.192-.543-.38-.761-.88-.761h-1.94c-.555 0-.669.261-.669.554 0 .52.66 3.09 3.07 6.492 1.606 2.32 3.872 3.579 5.93 3.579 1.235 0 1.387-.278 1.387-.762 0-2.215-.11-2.426.508-2.426.289 0 .781.145 1.937 1.266 1.32 1.328 1.535 1.921 2.278 1.921h1.941c.555 0 .836-.277.672-.828-.367-1.16-2.867-3.543-2.977-3.703-.289-.37-.207-.539 0-.87.004-.005 2.375-3.364 2.618-4.505zm0 0"/>
</svg>
